<?xml version="1.0" encoding="UTF-8" standalone="no"?>
<!-- Created with Inkscape (http://www.inkscape.org/) -->
<svg xmlns:rdf="http://www.w3.org/1999/02/22-rdf-syntax-ns#" xmlns="http://www.w3.org/2000/svg" height="130.03" width="130" version="1.1" xmlns:cc="http://creativecommons.org/ns#" xmlns:dc="http://purl.org/dc/elements/1.1/">
 <defs>
  <filter id="filter4346" style="color-interpolation-filters:sRGB">
   <feFlood flood-opacity=".16" result="flood" flood-color="rgb(0,0,0)"/>
   <feComposite operator="in" result="composite1" in2="SourceGraphic" in="flood"/>
   <feGaussianBlur stdDeviation="3" result="blur"/>
   <feOffset result="offset" dx="0" dy="3"/>
   <feComposite operator="over" result="fbSourceGraphic" in2="offset" in="SourceGraphic"/>
   <feColorMatrix values="0 0 0 -1 0 0 0 0 -1 0 0 0 0 -1 0 0 0 0 1 0" result="fbSourceGraphicAlpha" in="fbSourceGraphic"/>
   <feFlood flood-color="rgb(0,0,0)" flood-opacity=".23" result="flood" in="fbSourceGraphic"/>
   <feComposite operator="in" result="composite1" in2="fbSourceGraphic" in="flood"/>
   <feGaussianBlur stdDeviation="3" result="blur"/>
   <feOffset result="offset" dx="0" dy="3"/>
   <feComposite operator="over" result="composite2" in2="offset" in="fbSourceGraphic"/>
  </filter>
 </defs>
 <metadata>
  <rdf:RDF>
   <cc:Work rdf:about="">
    <dc:format>image/svg+xml</dc:format>
    <dc:type rdf:resource="http://purl.org/dc/dcmitype/StillImage"/>
    <dc:title/>
   </cc:Work>
  </rdf:RDF>
 </metadata>
 <g filter="url(#filter4346)" transform="matrix(.16667 0 0 .16667 1.0096 -46.416)">
  <g transform="matrix(7.0835,0,0,7.0835,-164.97,-6127.1)">
   <g transform="matrix(.41277 0 0 .41277 1999.2 714.04)">
    <path style="color:#000000;text-decoration-line:none;text-transform:none;text-indent:0" d="m-4655.7 462.93c-72.412 0-131.33 58.92-131.33 131.33 0 72.412 58.92 131.33 131.33 131.33 72.412 0 131.33-58.92 131.33-131.33 0-72.412-58.92-131.33-131.33-131.33zm0 20.433c61.366 0 110.9 49.533 110.9 110.9 0 61.366-49.533 110.9-110.9 110.9-61.366 0-110.9-49.533-110.9-110.9 0-61.366 49.533-110.9 110.9-110.9z"/>
    <path fill-rule="evenodd" d="m-4663.8 558.7c-3.8069-4.7123-6.7547-10.117-8.6556-15.868 6.1302 2.6323 12.804 3.9917 19.475 3.9671 6.5512-0.0242 13.095-1.3822 19.114-3.9671-0.711 6.295-3.2438 12.374-7.213 17.311-3.0229 3.7602-6.8647 6.8585-11.18 9.0162-4.3565-2.8619-8.2651-6.4041-11.541-10.459zm28.888 96.262-21.524-18.832-20.312 18.7c5.9622 2.3132 12.307 3.6363 18.697 3.8988 7.8616 0.3229 15.786-0.96713 23.139-3.7669zm5.3985-15.077c3.1156 6.9569 4.6444 14.619 4.4373 22.239-9.8167 4.5154-20.641 6.8239-31.446 6.7065-10.696-0.11617-21.36-2.6088-30.999-7.2458-0.763-8.2925 0.047-16.727 2.3739-24.723 1.5681-5.388 3.811-10.558 6.2905-15.592 2.2224-4.5122 4.6396-8.9284 7.2425-13.232-6.7943 2.26-13.016 6.2209-17.938 11.421-3.5235 3.7218-6.3731 8.0477-8.6878 12.62-5.3367 10.543-7.8491 22.582-6.6209 34.334 0.3033 2.902 0.8299 5.7807 1.5736 8.6021 14.923 8.1209 31.935 12.364 48.924 12.204 16.356-0.15485 32.657-4.3854 47.024-12.204 2.5763-14.201 0.7613-29.168-5.1348-42.342-4.8405-10.815-12.282-20.289-20.531-28.796-5.5779-5.7527-11.547-11.11-17.298-16.69-4.9031-4.7572-9.6476-9.6765-14.275-14.703-6.6691-7.2445-13.188-14.856-17.213-23.843-3.1156-6.9569-4.6444-14.619-4.4373-22.239 9.8167-4.5153 20.641-6.8239 31.446-6.7065 10.696 0.11616 21.36 2.6087 30.999 7.2458 0.763 8.2925-0.047 16.727-2.3739 24.723-1.5681 5.388-3.811 10.558-6.2905 15.592-2.2224 4.5122-4.6396 8.9284-7.2426 13.232 6.7943-2.26 13.016-6.2208 17.938-11.421 3.5235-3.7218 6.3731-8.0477 8.6877-12.62 5.3366-10.543 7.849-22.582 6.6209-34.334-0.3033-2.902-0.8298-5.7807-1.5735-8.6021-14.923-8.1209-31.935-12.364-48.924-12.204-16.355 0.15487-32.657 4.3854-47.024 12.204-2.5764 14.201-0.7614 29.168 5.1347 42.342 4.8406 10.815 12.283 20.289 20.531 28.796 5.5778 5.7527 11.547 11.11 17.298 16.69 4.9031 4.7572 9.6476 9.6765 14.275 14.703 6.6691 7.2445 13.189 14.856 17.213 23.843z"/>
   </g>
  </g>
 </g>
</svg>
